<?xml version="1.0" standalone="no"?><!DOCTYPE svg PUBLIC "-//W3C//DTD SVG 1.1//EN" "http://www.w3.org/Graphics/SVG/1.1/DTD/svg11.dtd"><svg t="1680973234127" class="icon" viewBox="0 0 1024 1024" version="1.1" xmlns="http://www.w3.org/2000/svg" p-id="2196" width="32" height="32" xmlns:xlink="http://www.w3.org/1999/xlink"><path d="M512 1024C229.248 1024 0 794.752 0 512S229.248 0 512 0s512 229.248 512 512-229.248 512-512 512z m0-896C299.968 128 128 299.968 128 512s171.968 384 384 384 384-171.968 384-384S724.032 128 512 128z m180.992 564.992a63.936 63.936 0 0 1-90.496 0L512 602.496l-90.496 90.496a64 64 0 1 1-90.56-90.496L421.504 512l-90.56-90.496a64 64 0 0 1 0-90.56 64 64 0 0 1 90.56 0L512 421.504l90.496-90.56a64 64 0 1 1 90.496 90.56L602.496 512l90.496 90.496a63.936 63.936 0 0 1 0 90.496z" fill="#85afb1" p-id="2197"></path></svg>