<?xml version="1.0" standalone="no"?><!DOCTYPE svg PUBLIC "-//W3C//DTD SVG 1.1//EN" "http://www.w3.org/Graphics/SVG/1.1/DTD/svg11.dtd"><svg t="1680773245151" class="icon" viewBox="0 0 1024 1024" version="1.1" xmlns="http://www.w3.org/2000/svg" p-id="2250" width="40" height="40" xmlns:xlink="http://www.w3.org/1999/xlink"><path d="M512 0c282.763636 0 512 229.236364 512 512s-229.236364 512-512 512S0 794.763636 0 512 229.236364 0 512 0z m0 69.818182C267.799273 69.818182 69.818182 267.799273 69.818182 512s197.981091 442.181818 442.181818 442.181818 442.181818-197.981091 442.181818-442.181818S756.200727 69.818182 512 69.818182z m0 139.636363c167.098182 0 302.545455 135.447273 302.545455 302.545455s-135.447273 302.545455-302.545455 302.545455S209.454545 679.098182 209.454545 512 344.901818 209.454545 512 209.454545z" fill="#85afb1" p-id="2251"></path></svg>